<?xml version="1.0" encoding="iso-8859-1"?>
<!-- Generator: Adobe Illustrator 17.1.0, SVG Export Plug-In . SVG Version: 6.00 Build 0)  -->
<!DOCTYPE svg PUBLIC "-//W3C//DTD SVG 1.1//EN" "http://www.w3.org/Graphics/SVG/1.1/DTD/svg11.dtd">
<svg version="1.1" id="Capa_1" xmlns="http://www.w3.org/2000/svg" xmlns:xlink="http://www.w3.org/1999/xlink" x="0px" y="0px"
	 viewBox="0 0 489.708 489.708" style="enable-background:new 0 0 489.708 489.708;" xml:space="preserve">
<path d="M95.246,418.534h294.476c2.762,0,5,2.238,5,5s-2.238,5-5,5H95.246c-2.762,0-5-2.238-5-5S92.484,418.534,95.246,418.534z
	 M389.721,437.03H95.246c-2.762,0-5,2.239-5,5s2.238,5,5,5h294.476c2.762,0,5-2.239,5-5S392.483,437.03,389.721,437.03z M443.354,5
	v479.708c0,2.761-2.238,5-5,5H100.969c-25.194,0-54.615-15.139-54.615-57.804V45.153C46.354,20.255,66.61,0,91.507,0h346.847
	C441.116,0,443.354,2.239,443.354,5z M433.354,479.708v-72.766h-15.79v54.922c0,2.762-2.238,5-5,5H102.733
	c-19.277,0-34.961-15.684-34.961-34.961c0-19.278,15.684-34.961,34.961-34.961h288.413h21.418h20.79v-10.396H94.287
	c-5.577,0-12.193,2.511-18.629,7.072c-0.878,0.622-1.887,0.92-2.887,0.921c-1.566,0-3.109-0.734-4.084-2.11
	c-1.596-2.253-1.063-5.374,1.189-6.97c8.111-5.748,16.78-8.913,24.41-8.913h1.683v-15.384c0-2.761,2.238-5,5-5s5,2.239,5,5v15.384
	h327.385V10H105.969v312.764c0,2.762-2.238,5-5,5s-5-2.238-5-5V10h-4.462c-19.384,0-35.153,15.77-35.153,35.153v386.75
	c0,45.5,37.165,47.804,44.615,47.804H433.354z M102.733,406.942c-13.764,0-24.961,11.198-24.961,24.961s11.197,24.961,24.961,24.961
	h304.831v-49.922h-16.418H102.733z M167.895,106.853h202.49c2.762,0,5-2.239,5-5c0-2.762-2.238-5-5-5h-202.49c-2.762,0-5,2.238-5,5
	C162.895,104.614,165.133,106.853,167.895,106.853z M167.895,147.203h202.49c2.762,0,5-2.239,5-5c0-2.762-2.238-5-5-5h-202.49
	c-2.762,0-5,2.238-5,5C162.895,144.964,165.133,147.203,167.895,147.203z M327.854,177.552H210.426c-2.762,0-5,2.239-5,5
	s2.238,5,5,5h117.428c2.762,0,5-2.239,5-5S330.616,177.552,327.854,177.552z"/>
<g>
</g>
<g>
</g>
<g>
</g>
<g>
</g>
<g>
</g>
<g>
</g>
<g>
</g>
<g>
</g>
<g>
</g>
<g>
</g>
<g>
</g>
<g>
</g>
<g>
</g>
<g>
</g>
<g>
</g>
</svg>
